Simulation
nRows=44
nColumns=15
endheader
time  TH_x TH_y TH_z SC_y  SC_z  SC_x  AC_y  AC_z  AC_x  GH_y  GH_z  GH_yy  EL_x  PS_y
5.362  0.000000  0.000000  0.000000  -25.03732592158497  7.074421445711781  14.070528717252838  58.74219452638657  19.089261185455776  10.880871451437585  -11.401517855687183  69.05958771446252  8.189691118885603  13.566848556164652  120.000000
5.4156200000000005  0.000000  0.000000  0.000000  -25.129784851946894  7.070071959959188  14.743110597178152  58.9877253244661  18.343163722593978  10.311383871197293  -11.224765594286263  69.39919616682711  7.732709335889735  13.623934876329043  120.000000
5.46924  0.000000  0.000000  0.000000  -25.05903938378416  7.012130095166552  14.927649517229096  59.368966666247765  17.535540169015086  9.577935210858794  -11.095716408785492  69.57609995622423  7.3784016009919995  13.492176662284557  120.000000
5.52286  0.000000  0.000000  0.000000  -24.82567337394124  6.881989224834695  14.613389319148162  59.86047197903198  16.664190978091302  8.733717992225419  -11.017621820711257  69.53140962202467  7.107223808727934  13.229866606348317  120.000000
5.57648  0.000000  0.000000  0.000000  -24.444498294098626  6.654433512424243  13.804706825724724  60.4201267005117  15.733148705301486  7.856739910140428  -10.984503312569672  69.2042052769775  6.890982521769657  12.921387863440058  120.000000
5.6301000000000005  0.000000  0.000000  0.000000  -23.946867376200885  6.308851114147572  12.515845548916099  60.99140803587226  14.756359703184973  7.036098969798937  -10.974666038168854  68.54572372118704  6.7160849249249575  12.6449745455025  120.000000
5.68372  0.000000  0.000000  0.000000  -23.377078047591592  5.837034699245057  10.76950666589241  61.507101162914324  13.761828181564002  6.359284304890146  -10.947847254560573  67.52858192806949  6.599751012050176  12.447628883556641  120.000000
5.73734  0.000000  0.000000  0.000000  -22.78364968264781  5.2456340725097075  8.60302532776078  61.896078850931545  12.792515989259071  5.901431034275001  -10.848690964230732  66.14707563593755  6.590329129793118  12.338209990625328  120.000000
5.79096  0.000000  0.000000  0.000000  -22.209732125749927  4.559248948148298  6.076819700978057  62.09458900465437  11.903513228646965  5.710952386280577  -10.620174724133298  64.40617219898351  6.752044682832032  12.297247830570523  120.000000
5.8445800000000006  0.000000  0.000000  0.000000  -21.685068381270554  3.8188792321843157  3.2794563010552094  62.05716059969073  11.152588629256597  5.798064746616948  -10.217277819753361  62.30612623476335  7.144306765400321  12.293747252190512  120.000000
5.8982  0.000000  0.000000  0.000000  -21.218549337060207  3.075409405685959  0.32597127389695063  61.76424183945453  10.586749672361368  6.130639549733995  -9.614528793955941  59.831859562112264  7.804426526268691  12.298103217127537  120.000000
5.95182  0.000000  0.000000  0.000000  -20.798052808927167  2.3822670851165704  -2.650939404888686  61.22423371125183  10.23718859591995  6.641244233061423  -8.807600563556347  56.95401633467191  8.740915596107392  12.28922483679923  120.000000
6.00544  0.000000  0.000000  0.000000  -20.39965047959589  1.789448843643412  -5.513867586922068  60.46975732645281  10.122741378363509  7.242817155935298  -7.8104904486950115  53.64725160477874  9.93550170082889  12.254612037767759  120.000000
6.059060000000001  0.000000  0.000000  0.000000  -20.00373914700541  1.3393535237621785  -8.13190221061275  59.550617671601664  10.252042245829598  7.849230130557074  -6.646872677586348  49.918413241909256  11.350862394545501  12.19060122996696  120.000000
6.11268  0.000000  0.000000  0.000000  -19.61090527341336  1.064378529450822  -10.398518419439878  58.53109600437471  10.618696770092187  8.391150333283669  -5.334002473319848  45.832016518657326  12.934523482591526  12.104916740835575  120.000000
6.1663  0.000000  0.000000  0.000000  -19.24987220359077  0.9733099394283078  -12.244214282795474  57.47748800659799  11.19411895811314  8.832466799105292  -3.874921630115814  41.51291853920889  14.625302807684937  12.018490552408583  120.000000
6.21992  0.000000  0.000000  0.000000  -18.971777998768765  1.0468471556441605  -13.645492781811212  56.453697634644186  11.926144576492739  9.169949912260078  -2.2602991628291202  37.12363478749879  16.359261788691345  11.962857603946365  120.000000
6.273540000000001  0.000000  0.000000  0.000000  -18.824458760436986  1.2506477013790718  -14.623004435727363  55.52879137840765  12.74494790003678  9.405386334485272  -0.4770715991835636  32.82842438253871  18.076147113185865  11.974568341480369  120.000000
6.32716  0.000000  0.000000  0.000000  -18.83232227101376  1.5351741148771554  -15.2159080540811  54.757425696155266  13.579089235474843  9.547765027174465  1.4705868029655884  28.76131749598877  19.735278956138117  12.089316825938328  120.000000
6.38078  0.000000  0.000000  0.000000  -18.98383729889055  1.8488651161209697  -15.466114709899754  54.174086740067196  14.371958397421201  9.61110145507219  3.549897850264098  25.012936352354618  21.322345176496675  12.337585693515864  120.000000
6.4344  0.000000  0.000000  0.000000  -19.235463189244726  2.1554697268348835  -15.414423228099965  53.79795977576519  15.087718452966783  9.601031919914275  5.697435504148868  21.629127033416896  22.84640431657632  12.741325030132856  120.000000
6.488020000000001  0.000000  0.000000  0.000000  -19.530085434337426  2.4341797524290865  -15.100790382577928  53.62510435868953  15.714490129351965  9.523134527177954  7.823396674222657  18.616351031887763  24.330044488878613  13.306334630083555  120.000000
6.54164  0.000000  0.000000  0.000000  -19.81964468386921  2.6770677417407795  -14.566246024957684  53.62780570485209  16.259115000170336  9.388983354276025  9.839618998827987  15.953920799228824  25.777253637752843  14.011644346968591  120.000000
6.59526  0.000000  0.000000  0.000000  -20.08275245827452  2.8834154400350083  -13.852006967533654  53.75799440271563  16.73455085593124  9.215508715019803  11.704765548957168  13.60670489990963  27.127408772680674  14.800828630682304  120.000000
6.64888  0.000000  0.000000  0.000000  -20.326252535509834  3.0597062451804344  -12.999529470617698  53.96249112354796  17.150504797016147  9.015304890188967  13.495804068517762  11.535054737206268  28.194263649131745  15.589251343420667  120.000000
6.702500000000001  0.000000  0.000000  0.000000  -20.5745027410392  3.2170556099369567  -12.050864160046839  54.196573651538586  17.512004357191167  8.789594665772757  15.465981557445602  9.701118565931445  28.630040205939302  16.28566373624273  120.000000
6.75612  0.000000  0.000000  0.000000  -20.84955644898636  3.368975902657021  -11.043230745120708  54.421663769349635  17.82098556620753  8.53565342107524  18.001770631276315  8.070388704110705  27.998225210033613  16.820675389039078  120.000000
6.80974  0.000000  0.000000  0.000000  -21.158137559816968  3.525950900529316  -10.00350411722187  54.60558537136777  18.078978466199565  8.256373171606354  21.51779471354485  6.615566190949118  25.899027252172903  17.16800224032329  120.000000
6.86336  0.000000  0.000000  0.000000  -21.485424962517662  3.693290568785587  -8.946792971078976  54.72815640618612  18.287091800070197  7.962556065220609  26.368973636471743  5.3162273397704585  22.055998546123977  17.347841469603374  120.000000
6.916980000000001  0.000000  0.000000  0.000000  -21.799706557887262  3.8721783520477815  -7.881045995541843  54.7870426127657  18.44507519674659  7.668925991824718  32.904590067873905  4.15344900047556  16.23801003619928  17.410842969773743  120.000000
6.9706  0.000000  0.000000  0.000000  -22.064711250754247  4.05837800053095  -6.814791805413423  54.80629880646266  18.550577748560023  7.389091877002665  42.045702173838514  3.115055004623825  7.644575715334206  17.416435832945943  120.000000
7.02422  0.000000  0.000000  0.000000  -22.25303545806092  4.2459088897858726  -5.756819546381797  54.82203791731638  18.59756032486201  7.134933074785908  56.5980169965786  2.223978010556848  -6.433815638837629  17.41518030494378  120.000000
7.07784  0.000000  0.000000  0.000000  -22.361511359193255  4.428334235547487  -4.714831729140019  54.85406731843411  18.581612333134974  6.910223882405327  82.5696193790436  1.6012825182812198  -31.948993954167243  17.4329664907801  120.000000
7.131460000000001  0.000000  0.000000  0.000000  -22.41056499220621  4.603245151254594  -3.697358587287549  54.9060063226591  18.50364913646539  6.709818942118238  119.7160743706333  1.4981647915678702  -68.63583963590615  17.47175434538373  120.000000
7.18508  0.000000  0.000000  0.000000  -22.4285441565326  4.771042224103337  -2.714547681265309  54.97396963366124  18.368740458181744  6.525819760953238  147.95953502900934  1.9124414662909452  -96.41506812919496  17.52291591693631  120.000000
7.2387  0.000000  0.000000  0.000000  -22.441758926054767  4.930824878597642  -1.7787043718805808  55.05233009926303  18.183638334128588  6.351040368713421  162.94038290837642  2.529447038171059  -110.93283515870071  17.576177444770313  120.000000
7.29232  0.000000  0.000000  0.000000  -22.466903808452788  5.079950400731124  -0.9042319376446071  55.13915914140068  17.954608577774724  6.179173780747115  170.99927170209483  3.158055043572377  -118.53478375585445  17.6249938008261  120.000000
7.345940000000001  0.000000  0.000000  0.000000  -22.510481831783597  5.213231213717131  -0.10766569178690205  55.23565830222545  17.68585599859356  6.005389438549738  175.7025549589992  3.717422615646877  -122.78908315154436  17.667019486103342  120.000000
7.39956  0.000000  0.000000  0.000000  -22.571043834358036  5.3239095729741175  0.5924347827306328  55.34519292576461  17.37920525910664  5.825799860317123  178.5918431730445  4.164561753336294  -125.23673709120082  17.703365664472617  120.000000
7.45318  0.000000  0.000000  0.000000  -22.641570886039116  5.404703416557759  1.175471276742476  55.47102434594788  17.034794315423845  5.637951561940035  -179.62674972248317  4.469855076318222  -126.58136941400181  17.737684124390807  120.000000
7.5068  0.000000  0.000000  0.000000  -22.71196013030315  5.4488384725276715  1.6196823500261777  55.61435087884654  16.651684866833996  5.441225390451037  -178.60554075596679  4.609822411462243  -127.16739112769787  17.775597066503007  120.000000
7.560420000000001  0.000000  0.000000  0.000000  -22.771107466530637  5.4508303485704275  1.903834014818151  55.772287893993955  16.228311435231554  5.237109773153722  -178.16009594176361  4.564769552930988  -127.17620170937745  17.823005702766505  120.000000
7.61404  0.000000  0.000000  0.000000  -22.808445693634155  5.407392337757902  2.009743532127749  55.93668259029493  15.763552116581007  5.0296867679894355  -178.20734634315028  4.318267872699099  -126.69069633708816  17.883792289383344  120.000000
7.66766  0.000000  0.000000  0.000000  -22.815168158997242  5.317644458219781  1.9249362290888723  56.09495642486133  15.2582558123025  4.825571154221224  -178.79280678107656  3.8578832247222667  -125.67168764635909  17.956394850568962  120.000000
